# 3ds Max Wavefront OBJ Exporter v0.97b - (c)2007 guruware
# File Created: 19.03.2016 09:14:42

mtllib Desk.mtl

#
# object Desk
#

v  -13000.0000 -8753.4717 6769.9590
v  -13000.0000 -7753.4717 6769.9590
v  -14000.0000 -7753.4717 6769.9590
v  -14000.0000 -8753.4717 6769.9590
v  -23000.0000 -7753.4707 -10230.0410
v  -13000.0000 -7753.4707 -10230.0410
v  -13000.0010 -8753.4707 -10230.0410
v  -23000.0000 -8753.4707 -10230.0410
v  -23000.0000 -20753.4707 -10230.0410
v  -13000.0010 -20753.4707 -10230.0410
v  -13000.0000 -20753.4727 6769.9585
v  -14000.0000 -20753.4727 6769.9585
v  -17000.0000 -20753.4727 6769.9585
v  -19000.0000 -20753.4727 6769.9585
v  -22000.0000 -20753.4727 6769.9585
v  -23000.0000 -20753.4727 6769.9585
v  23000.0000 -8753.4717 6769.9590
v  23000.0000 -8753.4707 -10230.0410
v  23000.0000 -7753.4707 -10230.0410
v  23000.0000 -7753.4717 6769.9590
v  13098.8242 -7753.4707 -10230.0410
v  13098.8232 -7753.4717 6769.9590
v  17000.0000 -7753.4717 6769.9590
v  19000.0000 -7753.4717 6769.9590
v  22000.0000 -7753.4717 6769.9590
v  -23000.0000 -7753.4717 6769.9590
v  -23000.0000 -8753.4717 6769.9590
v  22000.0000 -8753.4717 6769.9590
v  13240.5430 -8753.4707 -10230.0410
v  20000.0000 -20753.4707 -10230.0410
v  20000.0000 -20753.4727 6769.9585
v  19000.0000 -20753.4727 6769.9585
v  17000.0000 -20753.4727 6769.9585
v  14000.0000 -20753.4727 6769.9585
v  13240.5391 -20753.4727 6769.9585
v  13240.5430 -20753.4707 -10230.0410
v  13240.5391 -8753.4717 6769.9590
v  -22000.0000 -7753.4717 6769.9590
v  -19000.0000 -7753.4717 6769.9590
v  -17000.0000 -7753.4717 6769.9590
v  -14000.0000 -9419.8926 6769.9590
v  -13000.0000 -9419.8926 6769.9590
v  -23000.0000 -9419.8916 -10230.0410
v  -23000.0000 -9419.8926 6769.9590
v  -13000.0010 -9419.8916 -10230.0410
v  23000.0000 -9386.4258 -10230.0410
v  13240.5430 -9386.4258 -10230.0410
v  23000.0000 -9386.4258 6769.9590
v  22000.0000 -9386.4258 6769.9590
v  13240.5391 -9386.4258 6769.9590
v  -14000.0000 -14635.4395 6769.9585
v  -13000.0000 -14635.4395 6769.9585
v  -23000.0000 -14635.4385 -10230.0410
v  -23000.0000 -14635.4395 6769.9585
v  -13000.0010 -14635.4385 -10230.0410
v  23000.0000 -14571.6699 -10230.0410
v  13240.5430 -14571.6699 -10230.0410
v  23000.0000 -14571.6719 6769.9585
v  22000.0000 -14571.6719 6769.9585
v  13240.5391 -14571.6719 6769.9585
v  -14000.0000 -15330.1621 6769.9585
v  -13000.0010 -15330.1621 6769.9585
v  -23000.0000 -15330.1621 -10230.0410
v  -23000.0000 -15330.1621 6769.9585
v  -13000.0010 -15330.1621 -10230.0410
v  23000.0000 -15330.1602 -10230.0410
v  13240.5430 -15330.1602 -10230.0410
v  23000.0000 -15330.1611 6769.9585
v  22000.0000 -15330.1611 6769.9585
v  13240.5381 -15330.1611 6769.9585
v  23000.0000 -20753.4707 -10230.0410
v  23000.0000 -20753.4727 6769.9585
v  22000.0000 -20753.4727 6769.9585
v  17000.0000 -8753.4717 6769.9590
v  19000.0000 -8753.4717 6769.9590
v  17000.0000 -9386.4258 6769.9590
v  19000.0000 -9386.4258 6769.9590
v  17000.0000 -9386.4258 7069.9590
v  17000.0000 -11000.0000 7069.9590
v  19000.0000 -11000.0000 7069.9590
v  19000.0000 -9386.4258 7069.9590
v  17000.0000 -14571.6719 6769.9585
v  17000.0000 -15330.1611 6769.9585
v  18999.9980 -15330.1611 6769.9585
v  19000.0000 -14571.6719 6769.9585
v  14000.0000 -7999.9995 6769.9590
v  14000.0000 -8753.4717 6769.9590
v  14000.0000 -9386.4258 6769.9590
v  14000.0000 -9386.4258 7069.9590
v  14000.0000 -11000.0000 7069.9590
v  14000.0000 -14571.6719 6769.9585
v  14000.0000 -15330.1611 6769.9585
v  -19000.0000 -8753.4717 6769.9590
v  -17000.0000 -8753.4717 6769.9590
v  -19000.0000 -9419.8926 6769.9590
v  -17000.0000 -9419.8926 6769.9590
v  -19000.0000 -9419.8926 7069.9590
v  -19000.0000 -11000.0000 7069.9590
v  -17000.0000 -11000.0000 7069.9590
v  -17000.0000 -9419.8926 7069.9590
v  -19000.0000 -14635.4395 6769.9585
v  -19000.0000 -15330.1621 6769.9585
v  -17000.0000 -15330.1621 6769.9585
v  -17000.0000 -14635.4395 6769.9585
v  -22000.0000 -8753.4717 6769.9590
v  -22000.0000 -9419.8926 6769.9590
v  -22000.0000 -9419.8926 7069.9590
v  -22000.0000 -11000.0000 7069.9590
v  -22000.0000 -14635.4395 6769.9585
v  -22000.0000 -15330.1621 6769.9585
v  22000.0000 -11000.0000 7069.9590
v  22000.0000 -9386.4258 7069.9590
v  17000.0000 -20000.0000 6769.9585
v  14000.0000 -20000.0000 6769.9585
v  19000.0000 -20000.0000 6769.9585
v  22000.0000 -20000.0000 6769.9585
v  23000.0000 -20000.0000 6769.9585
v  -14000.0000 -20000.0000 6769.9585
v  -13000.0000 -20000.0000 6769.9585
v  -23000.0000 -20000.0000 6769.9585
v  -19000.0000 -17000.0000 7069.9585
v  -17000.0000 -17000.0000 7069.9585
v  -17000.0000 -15330.1621 7069.9585
v  -19000.0000 -15330.1621 7069.9585
v  -22000.0000 -15330.1621 7069.9585
v  -22000.0000 -17000.0000 7069.9585
v  14000.0000 -17000.0000 7069.9585
v  17000.0000 -17000.0000 7069.9585
v  17000.0000 -15330.1611 7069.9585
v  14000.0000 -15330.1611 7069.9585
v  19000.0000 -17000.0000 7069.9585
v  18999.9980 -15330.1611 7069.9585
v  22000.0000 -17000.0000 7069.9585
v  22000.0000 -15330.1611 7069.9585
v  -22000.0000 -13055.3320 6769.9590
v  -22000.0000 -20000.0000 6769.9585
v  -14000.0000 -11000.0000 7069.9590
v  -14000.0000 -9419.8926 7069.9590
v  -14000.0000 -17000.0000 7069.9585
v  -14000.0000 -15330.1621 7069.9585
v  -19000.0000 -20000.0000 6769.9585
v  -17000.0000 -20000.0000 6769.9585
v  -22000.0000 -14635.4395 7069.9585
v  -22000.0000 -12000.0000 7069.9590
v  -19000.0000 -14635.4395 7069.9585
v  -17000.0000 -14635.4395 7069.9585
v  -14000.0000 -14635.4395 7069.9585
v  -14000.0000 -12000.0000 7069.9590
v  -22000.0000 -20000.0000 7069.9585
v  -22000.0000 -18000.0000 7069.9585
v  -19000.0000 -20000.0000 7069.9585
v  -17000.0000 -20000.0000 7069.9585
v  -14000.0000 -20000.0000 7069.9585
v  -14000.0000 -18000.0000 7069.9585
v  14000.0000 -14571.6719 7069.9585
v  14000.0000 -12000.0000 7069.9590
v  17000.0000 -14571.6719 7069.9585
v  19000.0000 -14571.6719 7069.9585
v  22000.0000 -14571.6719 7069.9585
v  22000.0000 -12000.0000 7069.9590
v  17000.0000 -20000.0000 7069.9585
v  14000.0000 -20000.0000 7069.9585
v  19000.0000 -20000.0000 7069.9585
v  22000.0000 -20000.0000 7069.9585
v  22000.0000 -18000.0000 7069.9585
v  14000.0000 -18000.0000 7069.9585
v  -19000.0000 -12000.0000 7069.9590
v  -17000.0000 -12000.0000 7069.9590
v  -17000.0000 -11000.0000 7369.9590
v  -19000.0000 -11000.0000 7369.9590
v  -19000.0000 -12000.0000 7369.9590
v  -17000.0000 -12000.0000 7369.9590
v  -19000.0000 -18000.0000 7069.9585
v  -17000.0000 -18000.0000 7069.9585
v  -17000.0000 -17000.0000 7369.9585
v  -19000.0000 -17000.0000 7369.9585
v  -19000.0000 -18000.0000 7369.9585
v  -17000.0000 -18000.0000 7369.9585
v  17000.0000 -12000.0000 7069.9590
v  19000.0000 -12000.0000 7069.9590
v  19000.0000 -11000.0000 7369.9590
v  17000.0000 -11000.0000 7369.9590
v  17000.0000 -12000.0000 7369.9590
v  19000.0000 -12000.0000 7369.9590
v  17000.0000 -18000.0000 7069.9585
v  19000.0000 -18000.0000 7069.9585
v  19000.0000 -17000.0000 7369.9585
v  17000.0000 -17000.0000 7369.9585
v  17000.0000 -18000.0000 7369.9585
v  19000.0000 -18000.0000 7369.9585
# 190 vertices

vn 0.0000 -0.0000 1.0000
vn 0.0000 0.0000 -1.0000
vn 0.0000 -1.0000 -0.0000
vn 1.0000 0.0000 -0.0000
vn -0.0000 1.0000 0.0000
vn 0.0000 1.0000 0.0000
vn -1.0000 0.0000 -0.0000
vn 1.0000 -0.0000 -0.0000
vn 1.0000 0.0000 0.0000
vn -1.0000 -0.0000 -0.0000
# 10 vertex normals

vt 0.7826 0.0000 0.0000
vt 0.7826 1.0000 0.0000
vt 0.8043 1.0000 0.0000
vt 0.8043 0.0000 0.0000
vt 0.0000 1.0000 0.0000
vt 0.2174 1.0000 0.0000
vt 0.2174 0.0000 0.0000
vt 0.0000 0.0000 0.0000
vt 0.1957 0.0000 0.0000
vt 0.1304 0.0000 0.0000
vt 0.0870 0.0000 0.0000
vt 0.0217 0.0000 0.0000
vt 1.0000 1.0000 0.0000
vt 1.0000 0.0000 0.0000
vt 0.2152 1.0000 0.0000
vt 0.2152 0.0000 0.0000
vt 0.0217 1.0000 0.0000
vt 0.7878 0.0000 0.0000
vt 0.7848 1.0000 0.0000
vt 0.9348 1.0000 0.0000
vt 0.9348 0.0000 0.0000
vt 0.9130 0.0000 0.0000
vt 0.8696 0.0000 0.0000
vt 0.7878 1.0000 0.0000
vt 0.2122 0.0000 0.0000
vt 0.9783 0.0000 0.0000
vt 0.1304 1.0000 0.0000
vt 0.0870 1.0000 0.0000
vt 0.1957 0.7535 0.0000
vt 0.9130 1.0000 0.0000
vt 0.8696 1.0000 0.0000
vt 0.9783 1.0000 0.0000
# 32 texture coords

g Desk
usemtl 09___Default
s 2
f 1/1/1 2/2/1 3/3/1 4/4/1 
s 4
f 5/5/2 6/6/2 7/7/2 8/8/2 
s 8
f 9/5/3 10/6/3 11/7/3 12/9/3 
f 9/5/3 12/9/3 13/10/3 14/11/3 
f 9/5/3 14/11/3 15/12/3 16/8/3 
s 16
f 17/8/4 18/5/4 19/13/4 20/14/4 
s 32
f 19/5/5 21/15/6 22/16/6 23/10/6 
f 19/5/5 23/10/6 24/11/5 25/12/5 
f 20/8/6 19/5/5 25/12/5 
s 64
f 26/8/7 5/5/7 8/13/7 27/14/7 
s 2
f 17/8/1 20/5/1 25/17/1 28/12/1 
s 4
f 19/13/2 18/14/2 29/18/2 21/19/2 
s 8
f 30/20/3 31/21/3 32/22/3 33/23/3 
f 30/20/3 33/23/3 34/4/3 35/18/3 
f 36/24/3 30/20/3 35/18/3 
s 32
f 6/2/6 2/1/6 22/16/6 21/15/6 
s 2
f 1/1/1 37/25/1 22/15/1 2/2/1 
s 4
f 21/19/2 29/18/2 7/7/2 6/6/2 
s 8
f 29/24/3 37/18/3 1/7/3 7/6/3 
s 32
f 5/13/6 26/14/6 38/26/6 39/22/6 
f 5/13/6 39/22/6 40/23/6 3/4/6 
f 5/13/6 3/4/6 2/1/6 6/2/6 
s off
f 4/9/1 41/9/1 42/7/1 1/7/1 
f 27/8/7 8/5/7 43/5/7 44/8/7 
f 8/5/2 7/6/2 45/6/2 43/5/2 
f 7/6/4 1/7/4 42/7/4 45/6/4 
f 29/24/2 18/13/2 46/13/2 47/24/2 
f 18/13/4 17/14/4 48/14/4 46/13/4 
f 28/26/1 49/26/1 48/14/1 17/14/1 
f 37/18/7 29/24/7 47/24/7 50/18/7 
f 41/9/1 51/9/1 52/7/1 42/7/1 
f 44/8/7 43/5/7 53/5/7 54/8/7 
f 43/5/2 45/6/2 55/6/2 53/5/2 
f 45/6/4 42/7/4 52/7/4 55/6/4 
f 47/24/2 46/13/2 56/13/2 57/24/2 
f 46/13/4 48/14/4 58/14/4 56/13/4 
f 49/26/1 59/26/1 58/14/1 48/14/1 
f 50/18/7 47/24/7 57/24/7 60/18/7 
f 51/9/1 61/9/1 62/7/1 52/7/1 
f 53/5/7 63/5/7 64/8/7 54/8/7 
f 55/6/2 65/6/2 63/5/2 53/5/2 
f 52/7/8 62/7/8 65/6/8 55/6/8 
f 56/13/2 66/13/2 67/24/2 57/24/2 
f 58/14/4 68/14/4 66/13/4 56/13/4 
f 59/26/1 69/26/1 68/14/1 58/14/1 
f 57/24/7 67/24/7 70/18/7 60/18/7 
s 8
f 71/13/3 72/14/3 73/26/3 31/21/3 
f 30/20/3 71/13/3 31/21/3 
s 2
f 23/27/1 74/10/1 75/11/1 24/28/1 
s off
f 74/23/1 76/23/1 77/22/1 75/22/1 
f 78/23/1 79/23/1 80/22/1 81/22/1 
f 82/23/1 83/23/1 84/22/1 85/22/1 
s 2
f 23/27/1 22/15/1 86/29/1 74/10/1 
f 86/29/1 87/9/1 74/10/1 
s off
f 87/4/1 88/4/1 76/23/1 74/23/1 
f 89/4/1 90/4/1 79/23/1 78/23/1 
f 91/4/1 92/4/1 83/23/1 82/23/1 
s 2
f 39/30/1 93/22/1 94/23/1 40/31/1 
s off
f 93/11/1 95/11/1 96/10/1 94/10/1 
f 97/11/1 98/11/1 99/10/1 100/10/1 
f 101/11/1 102/11/1 103/10/1 104/10/1 
s 2
f 38/32/1 105/26/1 93/22/1 39/30/1 
s off
f 105/12/1 106/12/1 95/11/1 93/11/1 
f 107/12/1 108/12/1 98/11/1 97/11/1 
f 109/12/1 110/12/1 102/11/1 101/11/1 
s 2
f 86/29/1 22/15/1 37/25/1 87/9/1 
s off
f 37/18/1 50/18/1 88/4/1 87/4/1 
f 50/18/1 60/18/1 91/4/1 88/4/1 
f 60/18/1 70/18/1 92/4/1 91/4/1 
s 2
f 24/28/1 75/11/1 28/12/1 25/17/1 
s off
f 75/22/1 77/22/1 49/26/1 28/26/1 
f 81/22/1 80/22/1 111/26/1 112/26/1 
f 85/22/1 84/22/1 69/26/1 59/26/1 
f 34/4/1 33/23/1 113/23/1 114/4/1 
f 33/23/1 32/22/1 115/22/1 113/23/1 
f 115/22/1 32/22/1 31/21/1 73/26/1 
f 115/22/1 73/26/1 116/26/1 
f 73/26/1 72/14/1 117/14/1 116/26/1 
f 62/7/1 61/9/1 118/9/1 
f 119/7/1 62/7/1 118/9/1 
f 9/5/7 16/8/7 120/8/7 64/8/7 
f 63/5/7 9/5/7 64/8/7 
f 10/6/2 9/5/2 63/5/2 65/6/2 
f 11/7/4 10/6/4 65/6/4 119/7/4 
f 62/7/9 119/7/9 65/6/9 
f 66/13/2 71/13/2 30/20/2 36/24/2 
f 66/13/2 36/24/2 67/24/2 
f 117/14/4 72/14/4 71/13/4 68/14/4 
f 68/14/4 71/13/4 66/13/4 
f 36/24/10 35/18/10 70/18/10 67/24/10 
f 121/11/1 122/10/1 123/10/1 124/11/1 
f 124/11/1 125/12/1 126/12/1 121/11/1 
f 70/18/1 35/18/1 34/4/1 114/4/1 
f 70/18/1 114/4/1 92/4/1 
f 127/4/1 128/23/1 129/23/1 130/4/1 
f 128/23/1 131/22/1 132/22/1 129/23/1 
f 131/22/1 133/26/1 134/26/1 132/22/1 
f 116/26/1 117/14/1 68/14/1 69/26/1 
s 2
f 26/13/1 27/14/1 105/26/1 38/32/1 
s off
f 27/8/1 44/8/1 106/12/1 105/12/1 
f 44/8/1 54/8/1 109/12/1 135/12/1 
f 106/12/1 44/8/1 135/12/1 
f 54/8/1 64/8/1 110/12/1 109/12/1 
f 64/8/1 120/8/1 136/12/1 110/12/1 
s 2
f 40/31/1 94/23/1 4/4/1 3/3/1 
s off
f 94/10/1 96/10/1 41/9/1 4/9/1 
f 100/10/1 99/10/1 137/9/1 138/9/1 
f 104/10/1 103/10/1 61/9/1 51/9/1 
f 123/10/1 122/10/1 139/9/1 140/9/1 
f 16/8/1 15/12/1 136/12/1 120/8/1 
f 15/12/1 14/11/1 141/11/1 136/12/1 
f 14/11/1 13/10/1 142/10/1 141/11/1 
f 13/10/1 12/9/1 118/9/1 142/10/1 
f 12/9/1 11/7/1 119/7/1 118/9/1 
f 96/10/6 95/11/6 97/11/6 100/10/6 
f 95/11/6 106/12/6 107/12/6 97/11/6 
f 135/12/7 109/12/7 143/12/7 106/12/7 
f 106/12/7 143/12/7 144/12/7 108/12/7 
f 106/12/7 108/12/7 107/12/7 
f 109/12/3 101/11/3 145/11/3 143/12/3 
f 101/11/3 104/10/3 146/10/3 145/11/3 
f 104/10/3 51/9/3 147/9/3 146/10/3 
f 51/9/4 41/9/4 138/9/4 137/9/4 
f 51/9/4 137/9/4 148/9/4 147/9/4 
f 41/9/6 96/10/6 100/10/6 138/9/6 
f 61/9/6 103/10/6 123/10/6 140/9/6 
f 103/10/6 102/11/6 124/11/6 123/10/6 
f 102/11/6 110/12/6 125/12/6 124/11/6 
f 110/12/7 136/12/7 149/12/7 150/12/7 
f 110/12/7 150/12/7 126/12/7 125/12/7 
f 136/12/3 141/11/3 151/11/3 149/12/3 
f 141/11/3 142/10/3 152/10/3 151/11/3 
f 142/10/3 118/9/3 153/9/3 152/10/3 
f 61/9/4 140/9/4 118/9/4 
f 118/9/4 140/9/4 139/9/4 154/9/4 
f 118/9/4 154/9/4 153/9/4 
f 77/22/6 76/23/6 78/23/6 81/22/6 
f 76/23/6 88/4/6 89/4/6 78/23/6 
f 88/4/7 91/4/7 155/4/7 156/4/7 
f 88/4/7 156/4/7 90/4/7 89/4/7 
f 91/4/3 82/23/3 157/23/3 155/4/3 
f 82/23/3 85/22/3 158/22/3 157/23/3 
f 85/22/3 59/26/3 159/26/3 158/22/3 
f 59/26/4 49/26/4 112/26/4 111/26/4 
f 59/26/4 111/26/4 160/26/4 159/26/4 
f 49/26/6 77/22/6 81/22/6 112/26/6 
f 114/4/3 113/23/3 161/23/3 162/4/3 
f 113/23/3 115/22/3 163/22/3 161/23/3 
f 115/22/3 116/26/3 164/26/3 163/22/3 
f 116/26/4 69/26/4 134/26/4 133/26/4 
f 116/26/4 133/26/4 165/26/4 164/26/4 
f 69/26/6 84/22/6 132/22/6 134/26/6 
f 84/22/6 83/23/6 129/23/6 132/22/6 
f 83/23/6 92/4/6 130/4/6 129/23/6 
f 92/4/7 114/4/7 162/4/7 166/4/7 
f 92/4/7 166/4/7 127/4/7 130/4/7 
f 143/12/1 145/11/1 167/11/1 144/12/1 
f 145/11/1 146/10/1 168/10/1 167/11/1 
f 146/10/1 147/9/1 148/9/1 168/10/1 
f 137/9/1 99/10/1 168/10/1 148/9/1 
f 169/10/1 170/11/1 171/11/1 172/10/1 
f 98/11/1 108/12/1 144/12/1 167/11/1 
f 149/12/1 151/11/1 173/11/1 150/12/1 
f 151/11/1 152/10/1 174/10/1 173/11/1 
f 152/10/1 153/9/1 154/9/1 174/10/1 
f 139/9/1 122/10/1 174/10/1 154/9/1 
f 175/10/1 176/11/1 177/11/1 178/10/1 
f 121/11/1 126/12/1 150/12/1 173/11/1 
f 155/4/1 157/23/1 179/23/1 156/4/1 
f 157/23/1 158/22/1 180/22/1 179/23/1 
f 158/22/1 159/26/1 160/26/1 180/22/1 
f 111/26/1 80/22/1 180/22/1 160/26/1 
f 181/22/1 182/23/1 183/23/1 184/22/1 
f 79/23/1 90/4/1 156/4/1 179/23/1 
f 162/4/1 161/23/1 185/23/1 166/4/1 
f 161/23/1 163/22/1 186/22/1 185/23/1 
f 163/22/1 164/26/1 165/26/1 186/22/1 
f 133/26/1 131/22/1 186/22/1 165/26/1 
f 187/22/1 188/23/1 189/23/1 190/22/1 
f 128/23/1 127/4/1 166/4/1 185/23/1 
f 98/11/7 167/11/7 171/11/7 170/11/7 
f 167/11/3 168/10/3 172/10/3 171/11/3 
f 168/10/4 99/10/4 169/10/4 172/10/4 
f 99/10/6 98/11/6 170/11/6 169/10/6 
f 121/11/7 173/11/7 177/11/7 176/11/7 
f 173/11/3 174/10/3 178/10/3 177/11/3 
f 174/10/4 122/10/4 175/10/4 178/10/4 
f 122/10/6 121/11/6 176/11/6 175/10/6 
f 79/23/7 179/23/7 183/23/7 182/23/7 
f 179/23/3 180/22/3 184/22/3 183/23/3 
f 180/22/4 80/22/4 181/22/4 184/22/4 
f 80/22/6 79/23/6 182/23/6 181/22/6 
f 128/23/7 185/23/7 189/23/7 188/23/7 
f 185/23/3 186/22/3 190/22/3 189/23/3 
f 186/22/4 131/22/4 187/22/4 190/22/4 
f 131/22/6 128/23/6 188/23/6 187/22/6 
# 180 polygons - 16 triangles

