# 3ds Max Wavefront OBJ Exporter v0.97b - (c)2007 guruware
# File Created: 19.03.2016 09:17:37

mtllib Keybaord.mtl

#
# object Keyboard
#

v  -9454.4316 -7508.7437 -999.9997
v  8695.0000 -7508.7437 -999.9997
v  8695.0010 -7753.1670 1999.9990
v  -9454.4307 -7753.1670 1999.9990
v  8695.0010 -7370.0552 1999.9990
v  8695.0010 -7370.0552 1762.2307
v  8000.0024 -7370.0552 1762.2307
v  8000.0015 -7370.0552 1999.9990
v  -9000.0000 -7370.0552 1999.9990
v  -9454.4307 -7370.0552 1999.9990
v  8695.0000 -7508.7437 -1999.9996
v  8695.0000 -7125.6318 -1999.9996
v  8695.0000 -7125.6318 -1784.9733
v  -9454.4316 -7508.7437 -1999.9996
v  -9454.4316 -7125.6318 -1999.9996
v  -9000.0000 -7125.6318 -1999.9996
v  7999.9985 -7125.6318 -1999.9996
v  -9454.4307 -7370.0552 1762.2307
v  -9454.4316 -7125.6318 -1784.9730
v  -8999.9990 -7370.0552 1762.2307
v  7999.9985 -7125.6318 -1784.9733
v  -9000.0000 -7125.6318 -1784.9733
v  -8999.9990 -7294.6426 1797.6343
v  8000.0024 -7294.6426 1797.6343
v  7999.9985 -7050.2192 -1749.5697
v  -9000.0000 -7050.2192 -1749.5697
v  -9454.4316 -7738.6108 -1999.9996
v  8695.0000 -7738.6108 -1999.9996
v  8695.0000 -7738.6108 -999.9997
v  -9454.4316 -7738.6108 -999.9997
# 30 vertices

vn 0.0000 -0.9781 -0.2080
vn 0.0000 1.0000 -0.0000
vn 0.0000 0.9960 0.0889
vn 0.0000 0.9982 0.0592
vn 0.0000 0.0000 1.0000
vn 1.0000 -0.0000 -0.0000
vn 1.0000 0.0000 -0.0000
vn 0.0000 0.0000 -1.0000
vn -1.0000 0.0000 0.0000
vn -1.0000 -0.0000 0.0000
vn -1.0000 0.0000 -0.0000
vn 0.0000 0.9842 0.1770
vn 0.0000 -1.0000 -0.0000
vn 0.0000 -0.1770 0.9842
vn 0.0000 0.1770 -0.9842
# 15 vertex normals

vt 1.0000 0.7500 0.0000
vt 0.0000 0.7500 0.0000
vt 0.0000 0.0000 0.0000
vt 1.0000 0.0000 0.0000
vt 1.0000 0.2500 0.0000
vt 0.9617 0.2500 0.0000
vt 0.9617 0.0000 0.0000
vt 1.0000 1.0000 0.0000
vt 0.9617 1.0000 0.0000
vt 0.0250 1.0000 0.0000
vt 0.0000 1.0000 0.0000
vt 0.7500 0.0000 0.0000
vt 0.7500 1.0000 0.0000
vt 0.2500 1.0000 0.0000
vt 0.9750 1.0000 0.0000
vt 0.0383 1.0000 0.0000
vt 0.2500 0.0000 0.0000
vt 0.0250 0.0000 0.0000
vt 0.0250 0.2500 0.0000
vt 0.0000 0.2500 0.0000
vt 0.9617 0.7500 0.0000
vt 0.0250 0.7500 0.0000
# 22 texture coords

g Keyboard
usemtl 09___Default
s 2
f 1/1/1 2/2/1 3/3/1 4/4/1 
s 4
f 5/4/2 6/5/3 7/6/4 8/7/2 
s 8
f 4/3/5 3/4/5 5/8/5 8/9/5 
f 4/3/5 8/9/5 9/10/5 10/11/5 
s 16
f 2/12/6 11/4/7 12/8/7 3/3/6 
f 3/3/6 12/8/7 13/13/7 6/14/6 
f 3/3/6 6/14/6 5/11/7 
s 32
f 11/3/8 14/4/8 15/8/8 16/15/8 
f 11/3/8 16/15/8 17/16/8 12/11/8 
s 64
f 1/17/9 4/4/9 10/8/9 14/3/9 
f 14/3/9 10/8/9 18/13/9 19/14/10 
f 14/3/9 19/14/10 15/11/11 
s 4
f 10/3/2 9/18/2 20/19/4 18/20/3 
f 9/18/2 8/7/2 7/6/4 20/19/4 
f 12/8/2 17/9/2 21/21/4 13/1/3 
f 17/9/2 16/10/2 22/22/4 21/21/4 
f 16/10/2 15/11/2 19/2/3 22/22/4 
f 18/20/3 20/19/4 22/22/4 19/2/3 
f 23/19/12 24/6/12 25/21/12 26/22/12 
f 7/6/4 6/5/3 13/1/3 21/21/4 
s 2
f 27/8/13 28/11/13 29/2/13 30/1/13 
s off
f 14/8/8 11/11/8 28/11/8 27/8/8 
f 11/11/7 2/2/7 29/2/7 28/11/7 
f 2/2/5 1/1/5 30/1/5 29/2/5 
f 1/1/11 14/8/11 27/8/11 30/1/11 
f 20/19/14 7/6/14 24/6/14 23/19/14 
f 7/6/7 21/21/7 25/21/7 24/6/7 
f 21/21/15 22/22/15 26/22/15 25/21/15 
f 22/22/10 20/19/10 23/19/10 26/22/10 
# 27 polygons - 2 triangles

