# 3ds Max Wavefront OBJ Exporter v0.97b - (c)2007 guruware
# File Created: 19.03.2016 09:18:24

mtllib Mouse.mtl

#
# object Mouse
#

v  11273.8525 -7703.7202 1000.0000
v  11148.3203 -7766.4863 571.4285
v  11574.1602 -7766.4863 571.4285
v  11636.9258 -7703.7202 1000.0000
v  12000.0000 -7766.4863 571.4285
v  12000.0000 -7703.7202 1000.0000
v  12425.8398 -7766.4863 571.4285
v  12363.0742 -7703.7202 1000.0000
v  12851.6797 -7766.4863 571.4285
v  12726.1475 -7703.7202 1000.0000
v  11058.2891 -7826.5435 142.8572
v  11529.1445 -7826.5435 142.8572
v  12000.0000 -7826.5435 142.8572
v  12470.8555 -7826.5435 142.8572
v  12941.7109 -7826.5435 142.8572
v  11000.0000 -7840.6465 -285.7143
v  11500.0000 -7840.6465 -285.7143
v  12000.0000 -7840.6465 -285.7143
v  12500.0000 -7840.6465 -285.7143
v  13000.0000 -7840.6465 -285.7143
v  11000.0000 -7840.6465 -714.2857
v  11500.0000 -7840.6465 -714.2857
v  12000.0000 -7840.6465 -714.2857
v  12500.0000 -7840.6465 -714.2857
v  13000.0000 -7840.6465 -714.2857
v  11000.0000 -7840.6465 -1142.8572
v  11500.0000 -7840.6465 -1142.8572
v  12000.0000 -7840.6465 -1142.8572
v  12500.0000 -7840.6465 -1142.8572
v  13000.0000 -7840.6465 -1142.8572
v  11096.1885 -7792.5522 -1571.4286
v  11548.0938 -7792.5522 -1571.4286
v  12000.0000 -7792.5522 -1571.4286
v  12451.9063 -7792.5522 -1571.4286
v  12903.8115 -7792.5522 -1571.4286
v  11344.8350 -7664.8906 -2000.0000
v  11669.0791 -7664.8906 -2000.0000
v  11993.3232 -7664.8906 -2000.0000
v  12330.1162 -7671.1650 -2000.0000
v  12660.6348 -7671.1650 -2000.0000
v  11371.2520 -7164.2388 1000.0000
v  11636.9258 -7164.2388 1000.0000
v  11574.1602 -6914.8066 571.4285
v  11148.3203 -6914.8066 571.4285
v  12000.0000 -7164.2388 1000.0000
v  12000.0000 -6914.8066 571.4285
v  12363.0742 -7164.2388 1000.0000
v  12425.8398 -6914.8066 571.4285
v  12628.7480 -7164.2388 1000.0000
v  12851.6797 -6914.8066 571.4285
v  11529.1445 -6854.7495 142.8572
v  11058.2891 -6854.7495 142.8572
v  12000.0000 -6854.7495 142.8572
v  12470.8555 -6854.7495 142.8572
v  12941.7109 -6854.7495 142.8572
v  11500.0000 -6840.6465 -285.7143
v  11000.0000 -6840.6465 -285.7143
v  12000.0000 -6840.6465 -285.7143
v  12500.0000 -6840.6465 -285.7143
v  13000.0000 -6840.6465 -285.7143
v  11500.0000 -6840.6465 -714.2857
v  11000.0000 -6840.6465 -714.2857
v  12000.0000 -6840.6465 -714.2857
v  12500.0000 -6840.6465 -714.2857
v  13000.0000 -6840.6465 -714.2857
v  11500.0000 -6840.6465 -1142.8572
v  11000.0000 -6840.6465 -1142.8572
v  12000.0000 -6840.6465 -1142.8572
v  12500.0000 -6840.6465 -1142.8572
v  13000.0000 -6840.6465 -1142.8572
v  11548.0938 -6888.7407 -1571.4286
v  11096.1885 -6888.7407 -1571.4286
v  12000.0000 -6888.7407 -1571.4286
v  12451.9063 -6888.7407 -1571.4286
v  12903.8115 -6888.7407 -1571.4286
v  11669.0791 -7016.4023 -2000.0000
v  11344.8350 -7016.4023 -2000.0000
v  11993.3232 -7016.4023 -2000.0000
v  12330.1162 -7010.1279 -2000.0000
v  12660.6348 -7010.1279 -2000.0000
v  11636.9258 -7340.6465 1000.0000
v  11273.8525 -7340.6465 1000.0000
v  12000.0000 -7340.6465 1000.0000
v  12363.0742 -7340.6465 1000.0000
v  12726.1475 -7340.6465 1000.0000
v  12851.6797 -7340.6465 571.4285
v  12941.7109 -7340.6465 142.8572
v  13000.0000 -7340.6465 -285.7143
v  13000.0000 -7340.6465 -714.2857
v  13000.0000 -7340.6465 -1142.8572
v  12903.8115 -7340.6465 -1571.4286
v  12660.6348 -7340.6465 -2000.0000
v  12330.1162 -7340.6465 -2000.0000
v  11993.3232 -7340.6465 -2000.0000
v  11669.0791 -7340.6465 -2000.0000
v  11344.8350 -7340.6465 -2000.0000
v  11096.1885 -7340.6465 -1571.4286
v  11000.0000 -7340.6465 -1142.8572
v  11000.0000 -7340.6465 -714.2858
v  11000.0000 -7340.6465 -285.7143
v  11058.2891 -7340.6465 142.8572
v  11148.3203 -7340.6465 571.4285
# 102 vertices

vn 0.0000 -0.9894 0.1449
vn 0.0000 -0.9900 0.1414
vn 0.0000 -0.9899 0.1418
vn 0.0000 -0.9968 0.0801
vn 0.0000 -0.9963 0.0860
vn 0.0000 -0.9999 0.0157
vn 0.0000 -0.9999 0.0164
vn 0.0000 -1.0000 -0.0000
vn 0.0000 -0.9987 -0.0517
vn 0.0000 -0.9984 -0.0558
vn 0.0000 -0.9842 -0.1770
vn 0.0000 -0.9799 -0.1993
vn -0.0019 -0.9803 -0.1973
vn 0.0000 -0.9813 -0.1927
vn 0.0000 -0.9850 -0.1723
vn 0.0000 -0.9584 -0.2855
vn -0.0088 -0.9584 -0.2853
vn -0.0053 -0.9611 -0.2763
vn 0.0000 -0.9622 -0.2725
vn 0.0000 0.8643 0.5030
vn 0.0000 0.9450 0.3270
vn 0.0000 0.9579 0.2869
vn 0.0000 0.9963 0.0860
vn 0.0000 0.9968 0.0801
vn 0.0000 0.9999 0.0164
vn 0.0000 0.9999 0.0157
vn 0.0000 1.0000 -0.0000
vn 0.0000 0.9984 -0.0558
vn 0.0000 0.9987 -0.0517
vn 0.0000 0.9799 -0.1993
vn 0.0000 0.9842 -0.1770
vn -0.0019 0.9803 -0.1973
vn 0.0000 0.9813 -0.1927
vn 0.0000 0.9850 -0.1723
vn 0.0000 0.9584 -0.2855
vn -0.0088 0.9584 -0.2853
vn -0.0053 0.9611 -0.2763
vn 0.0000 0.9622 -0.2725
vn 0.0000 0.0000 1.0000
vn 0.9597 0.0000 0.2811
vn 0.9707 0.0000 0.2402
vn 0.9699 0.0000 0.2435
vn 0.9121 0.1243 0.3907
vn 0.9857 0.0000 0.1683
vn 0.9854 0.0000 0.1703
vn 0.9978 0.0000 0.0668
vn 0.9977 0.0000 0.0675
vn 1.0000 0.0000 -0.0000
vn 0.9943 0.0000 -0.1062
vn 0.9939 0.0000 -0.1102
vn 0.9390 0.0000 -0.3439
vn 0.9329 0.0000 -0.3602
vn 0.8697 0.0000 -0.4935
vn 0.9599 0.0454 0.2767
vn 0.7048 0.3892 0.5931
vn 0.0000 0.0000 -1.0000
vn -0.8650 0.0000 -0.5018
vn -0.9377 0.0000 -0.3473
vn -0.9311 0.0000 -0.3646
vn -0.9943 0.0000 -0.1062
vn -0.9939 0.0000 -0.1102
vn -1.0000 0.0000 -0.0000
vn -0.9978 0.0000 0.0668
vn -0.9977 0.0000 0.0675
vn -0.9857 0.0000 0.1683
vn -0.9854 0.0000 0.1703
vn -0.9707 0.0000 0.2402
vn -0.9596 0.0298 0.2797
vn -0.9597 0.0000 0.2811
vn -0.9289 0.2512 0.2721
vn -0.9978 -0.0000 0.0668
vn -0.9857 -0.0000 0.1683
vn -0.9513 0.0000 0.3083
vn -0.8953 0.2694 0.3548
# 74 vertex normals

vt 1.0000 0.0000 0.0000
vt 1.0000 0.1429 0.0000
vt 0.7500 0.1429 0.0000
vt 0.7500 0.0000 0.0000
vt 0.5000 0.1429 0.0000
vt 0.5000 0.0000 0.0000
vt 0.2500 0.1429 0.0000
vt 0.2500 0.0000 0.0000
vt 0.0000 0.1429 0.0000
vt 0.0000 0.0000 0.0000
vt 1.0000 0.2857 0.0000
vt 0.7500 0.2857 0.0000
vt 0.5000 0.2857 0.0000
vt 0.2500 0.2857 0.0000
vt 0.0000 0.2857 0.0000
vt 1.0000 0.4286 0.0000
vt 0.7500 0.4286 0.0000
vt 0.5000 0.4286 0.0000
vt 0.2500 0.4286 0.0000
vt 0.0000 0.4286 0.0000
vt 1.0000 0.5714 0.0000
vt 0.7500 0.5714 0.0000
vt 0.5000 0.5714 0.0000
vt 0.2500 0.5714 0.0000
vt 0.0000 0.5714 0.0000
vt 1.0000 0.7143 0.0000
vt 0.7500 0.7143 0.0000
vt 0.5000 0.7143 0.0000
vt 0.2500 0.7143 0.0000
vt 0.0000 0.7143 0.0000
vt 1.0000 0.8571 0.0000
vt 0.7500 0.8571 0.0000
vt 0.5000 0.8571 0.0000
vt 0.2500 0.8571 0.0000
vt 0.0000 0.8571 0.0000
vt 1.0000 1.0000 0.0000
vt 0.7500 1.0000 0.0000
vt 0.5000 1.0000 0.0000
vt 0.2500 1.0000 0.0000
vt 0.0000 1.0000 0.0000
vt 0.2500 0.5000 0.0000
vt 0.0000 0.5000 0.0000
vt 0.5000 0.5000 0.0000
vt 0.7500 0.5000 0.0000
vt 1.0000 0.5000 0.0000
vt 0.1429 0.0000 0.0000
vt 0.1429 0.5000 0.0000
vt 0.2857 0.0000 0.0000
vt 0.2857 0.5000 0.0000
vt 0.4286 0.0000 0.0000
vt 0.4286 0.5000 0.0000
vt 0.5714 0.0000 0.0000
vt 0.5714 0.5000 0.0000
vt 0.7143 0.0000 0.0000
vt 0.7143 0.5000 0.0000
vt 0.8571 0.0000 0.0000
vt 0.8571 0.5000 0.0000
vt 0.1429 1.0000 0.0000
vt 0.2857 1.0000 0.0000
vt 0.4286 1.0000 0.0000
vt 0.5714 1.0000 0.0000
vt 0.7143 1.0000 0.0000
vt 0.8571 1.0000 0.0000
# 63 texture coords

g Mouse
usemtl 09___Default
s 2
f 1/1/1 2/2/2 3/3/3 4/4/1 
f 4/4/1 3/3/3 5/5/3 6/6/1 
f 6/6/1 5/5/3 7/7/3 8/8/1 
f 8/8/1 7/7/3 9/9/2 10/10/1 
f 2/2/2 11/11/4 12/12/5 3/3/3 
f 3/3/3 12/12/5 13/13/5 5/5/3 
f 5/5/3 13/13/5 14/14/5 7/7/3 
f 7/7/3 14/14/5 15/15/4 9/9/2 
f 11/11/4 16/16/6 17/17/7 12/12/5 
f 12/12/5 17/17/7 18/18/7 13/13/5 
f 13/13/5 18/18/7 19/19/7 14/14/5 
f 14/14/5 19/19/7 20/20/6 15/15/4 
f 16/16/6 21/21/8 22/22/8 17/17/7 
f 17/17/7 22/22/8 23/23/8 18/18/7 
f 18/18/7 23/23/8 24/24/8 19/19/7 
f 19/19/7 24/24/8 25/25/8 20/20/6 
f 21/21/8 26/26/9 27/27/10 22/22/8 
f 22/22/8 27/27/10 28/28/10 23/23/8 
f 23/23/8 28/28/10 29/29/10 24/24/8 
f 24/24/8 29/29/10 30/30/9 25/25/8 
f 26/26/9 31/31/11 32/32/12 27/27/10 
f 27/27/10 32/32/12 33/33/13 28/28/10 
f 28/28/10 33/33/13 34/34/14 29/29/10 
f 29/29/10 34/34/14 35/35/15 30/30/9 
f 31/31/11 36/36/16 37/37/16 32/32/12 
f 32/32/12 37/37/16 38/38/17 33/33/13 
f 33/33/13 38/38/17 39/39/18 34/34/14 
f 34/34/14 39/39/18 40/40/19 35/35/15 
s 4
f 41/10/20 42/8/20 43/7/21 44/9/22 
f 42/8/20 45/6/20 46/5/21 43/7/21 
f 45/6/20 47/4/20 48/3/21 46/5/21 
f 47/4/20 49/1/20 50/2/22 48/3/21 
f 44/9/22 43/7/21 51/14/23 52/15/24 
f 43/7/21 46/5/21 53/13/23 51/14/23 
f 46/5/21 48/3/21 54/12/23 53/13/23 
f 48/3/21 50/2/22 55/11/24 54/12/23 
f 52/15/24 51/14/23 56/19/25 57/20/26 
f 51/14/23 53/13/23 58/18/25 56/19/25 
f 53/13/23 54/12/23 59/17/25 58/18/25 
f 54/12/23 55/11/24 60/16/26 59/17/25 
f 57/20/26 56/19/25 61/24/27 62/25/27 
f 56/19/25 58/18/25 63/23/27 61/24/27 
f 58/18/25 59/17/25 64/22/27 63/23/27 
f 59/17/25 60/16/26 65/21/27 64/22/27 
f 62/25/27 61/24/27 66/29/28 67/30/29 
f 61/24/27 63/23/27 68/28/28 66/29/28 
f 63/23/27 64/22/27 69/27/28 68/28/28 
f 64/22/27 65/21/27 70/26/29 69/27/28 
f 67/30/29 66/29/28 71/34/30 72/35/31 
f 66/29/28 68/28/28 73/33/32 71/34/30 
f 68/28/28 69/27/28 74/32/33 73/33/32 
f 69/27/28 70/26/29 75/31/34 74/32/33 
f 72/35/31 71/34/30 76/39/35 77/40/35 
f 71/34/30 73/33/32 78/38/36 76/39/35 
f 73/33/32 74/32/33 79/37/37 78/38/36 
f 74/32/33 75/31/34 80/36/38 79/37/37 
s 8
f 1/10/39 4/8/39 81/41/39 82/42/39 
f 4/8/39 6/6/39 83/43/39 81/41/39 
f 6/6/39 8/4/39 84/44/39 83/43/39 
f 8/4/39 10/1/39 85/45/39 84/44/39 
f 82/42/39 81/41/39 42/39/39 41/40/39 
f 81/41/39 83/43/39 45/38/39 42/39/39 
f 83/43/39 84/44/39 47/37/39 45/38/39 
f 84/44/39 85/45/39 49/36/39 47/37/39 
s 16
f 10/10/40 9/46/41 86/47/42 85/42/43 
f 9/46/41 15/48/44 87/49/45 86/47/42 
f 15/48/44 20/50/46 88/51/47 87/49/45 
f 20/50/46 25/52/48 89/53/48 88/51/47 
f 25/52/48 30/54/49 90/55/50 89/53/48 
f 30/54/49 35/56/51 91/57/52 90/55/50 
f 35/56/51 40/1/53 92/45/53 91/57/52 
f 85/42/43 86/47/42 50/58/54 49/40/55 
f 86/47/42 87/49/45 55/59/44 50/58/54 
f 87/49/45 88/51/47 60/60/46 55/59/44 
f 88/51/47 89/53/48 65/61/48 60/60/46 
f 89/53/48 90/55/50 70/62/49 65/61/48 
f 90/55/50 91/57/52 75/63/51 70/62/49 
f 91/57/52 92/45/53 80/36/53 75/63/51 
s 32
f 40/10/56 39/8/56 93/41/56 92/42/56 
f 39/8/56 38/6/56 94/43/56 93/41/56 
f 38/6/56 37/4/56 95/44/56 94/43/56 
f 37/4/56 36/1/56 96/45/56 95/44/56 
f 92/42/56 93/41/56 79/39/56 80/40/56 
f 93/41/56 94/43/56 78/38/56 79/39/56 
f 94/43/56 95/44/56 76/37/56 78/38/56 
f 95/44/56 96/45/56 77/36/56 76/37/56 
s 64
f 36/10/57 31/46/58 97/47/59 96/42/57 
f 31/46/58 26/48/60 98/49/61 97/47/59 
f 26/48/60 21/50/62 99/51/62 98/49/61 
f 21/50/62 16/52/63 100/53/64 99/51/62 
f 16/52/63 11/54/65 101/55/66 100/53/64 
f 11/54/65 2/56/67 102/57/68 101/55/66 
f 2/56/67 1/1/69 82/45/70 102/57/68 
f 96/42/57 97/47/59 72/58/58 77/40/57 
f 97/47/59 98/49/61 67/59/60 72/58/58 
f 98/49/61 99/51/62 62/60/62 67/59/60 
f 99/51/62 100/53/64 57/61/71 62/60/62 
f 100/53/64 101/55/66 52/62/72 57/61/71 
f 101/55/66 102/57/68 44/63/73 52/62/72 
f 102/57/68 82/45/70 41/36/74 44/63/73 
# 100 polygons

